%TF.GenerationSoftware,Altium Limited,Altium Designer,22.8.2 (66)*%
G04 Layer_Color=16711935*
%FSLAX45Y45*%
%MOMM*%
%TF.SameCoordinates,48D8F32F-6FDE-41FD-AEFC-798A3E81C4E6*%
%TF.FilePolarity,Positive*%
%TF.FileFunction,Other,Top_Assembly*%
%TF.Part,Single*%
G01*
G75*
%TA.AperFunction,NonConductor*%
%ADD19C,0.20000*%
G36*
X15061446Y3573727D02*
X15061354D01*
X15061169D01*
X15060799D01*
X15060245Y3573635D01*
X15059689Y3573542D01*
X15059042D01*
X15057471Y3573265D01*
X15055807Y3572988D01*
X15054143Y3572433D01*
X15052663Y3571878D01*
X15052016Y3571508D01*
X15051460Y3571046D01*
X15051369Y3570953D01*
X15051091Y3570584D01*
X15050629Y3570029D01*
X15050166Y3569289D01*
X15049612Y3568272D01*
X15049242Y3567163D01*
X15048872Y3565776D01*
X15048779Y3564297D01*
Y3563742D01*
X15048872Y3563187D01*
X15048965Y3562355D01*
X15049150Y3561523D01*
X15049335Y3560598D01*
X15049704Y3559674D01*
X15050166Y3558749D01*
X15050259Y3558657D01*
X15050444Y3558379D01*
X15050813Y3558010D01*
X15051184Y3557455D01*
X15051831Y3556993D01*
X15052478Y3556438D01*
X15053218Y3555976D01*
X15054143Y3555606D01*
X15054234D01*
X15054605Y3555421D01*
X15055252Y3555328D01*
X15056084Y3555144D01*
X15057193Y3554959D01*
X15058580Y3554866D01*
X15060245Y3554681D01*
X15062186D01*
X15106288D01*
Y3546175D01*
X15062648D01*
X15062556D01*
X15062279D01*
X15061909D01*
X15061354D01*
X15060614Y3546268D01*
X15059875D01*
X15058118Y3546453D01*
X15056084Y3546638D01*
X15053957Y3547007D01*
X15052016Y3547562D01*
X15050166Y3548209D01*
X15050073D01*
X15049982Y3548302D01*
X15049426Y3548579D01*
X15048688Y3549041D01*
X15047670Y3549689D01*
X15046654Y3550613D01*
X15045544Y3551630D01*
X15044434Y3552925D01*
X15043510Y3554404D01*
X15043417Y3554589D01*
X15043140Y3555144D01*
X15042770Y3555976D01*
X15042400Y3557178D01*
X15041937Y3558657D01*
X15041568Y3560321D01*
X15041290Y3562170D01*
X15041199Y3564204D01*
Y3565036D01*
X15041290Y3565591D01*
X15041383Y3566331D01*
X15041476Y3567070D01*
X15041846Y3569012D01*
X15042400Y3571046D01*
X15043233Y3573172D01*
X15043787Y3574282D01*
X15044434Y3575299D01*
X15045174Y3576223D01*
X15046005Y3577148D01*
X15046098Y3577240D01*
X15046191Y3577333D01*
X15046561Y3577518D01*
X15046931Y3577795D01*
X15047392Y3578165D01*
X15048039Y3578535D01*
X15048779Y3578905D01*
X15049612Y3579367D01*
X15050537Y3579737D01*
X15051646Y3580107D01*
X15052756Y3580476D01*
X15054050Y3580846D01*
X15055437Y3581031D01*
X15057008Y3581309D01*
X15058580Y3581401D01*
X15060336D01*
X15061446Y3573727D01*
D02*
G37*
G36*
X15090479Y3529441D02*
X15090662Y3529256D01*
X15090755Y3528886D01*
X15091032Y3528424D01*
X15091310Y3527869D01*
X15091679Y3527222D01*
X15092604Y3525650D01*
X15093620Y3523801D01*
X15094914Y3521952D01*
X15096394Y3520010D01*
X15097968Y3518069D01*
X15098059Y3517976D01*
X15098151Y3517884D01*
X15098428Y3517606D01*
X15098706Y3517237D01*
X15099631Y3516404D01*
X15100740Y3515295D01*
X15102036Y3514186D01*
X15103514Y3512984D01*
X15104993Y3511967D01*
X15106564Y3511042D01*
Y3505957D01*
X15042308D01*
Y3513816D01*
X15092326D01*
X15092233Y3513908D01*
X15091864Y3514370D01*
X15091310Y3514925D01*
X15090662Y3515850D01*
X15089830Y3516867D01*
X15088905Y3518161D01*
X15087889Y3519640D01*
X15086871Y3521305D01*
Y3521397D01*
X15086778Y3521490D01*
X15086411Y3522044D01*
X15085947Y3522969D01*
X15085393Y3524078D01*
X15084744Y3525373D01*
X15084097Y3526760D01*
X15083450Y3528146D01*
X15082896Y3529533D01*
X15090479D01*
Y3529441D01*
D02*
G37*
G36*
X16783891Y3626148D02*
X16783800D01*
X16783429D01*
X16782874D01*
X16782135Y3626240D01*
X16781303Y3626333D01*
X16780379Y3626518D01*
X16779454Y3626702D01*
X16778436Y3627072D01*
X16778345D01*
X16778252Y3627165D01*
X16777698Y3627350D01*
X16776865Y3627719D01*
X16775755Y3628274D01*
X16774461Y3629014D01*
X16772981Y3629938D01*
X16771503Y3630955D01*
X16769931Y3632250D01*
X16769838D01*
X16769746Y3632435D01*
X16769191Y3632897D01*
X16768359Y3633729D01*
X16767157Y3634931D01*
X16765770Y3636318D01*
X16764107Y3638075D01*
X16762257Y3640201D01*
X16760315Y3642512D01*
X16760223Y3642605D01*
X16759946Y3642975D01*
X16759483Y3643529D01*
X16758928Y3644177D01*
X16758189Y3645009D01*
X16757356Y3646026D01*
X16756432Y3647043D01*
X16755415Y3648245D01*
X16753197Y3650556D01*
X16750977Y3652867D01*
X16749867Y3653977D01*
X16748758Y3654994D01*
X16747742Y3655919D01*
X16746724Y3656658D01*
X16746632D01*
X16746539Y3656843D01*
X16746262Y3657028D01*
X16745892Y3657213D01*
X16744875Y3657860D01*
X16743674Y3658600D01*
X16742194Y3659247D01*
X16740622Y3659894D01*
X16738866Y3660264D01*
X16737201Y3660449D01*
X16737109D01*
X16737016D01*
X16736462Y3660356D01*
X16735538Y3660264D01*
X16734520Y3659987D01*
X16733226Y3659617D01*
X16731931Y3658970D01*
X16730637Y3658137D01*
X16729343Y3657028D01*
X16729158Y3656843D01*
X16728789Y3656381D01*
X16728325Y3655734D01*
X16727678Y3654717D01*
X16727124Y3653422D01*
X16726569Y3651943D01*
X16726199Y3650186D01*
X16726106Y3648245D01*
Y3647690D01*
X16726199Y3647320D01*
X16726291Y3646211D01*
X16726569Y3644916D01*
X16726939Y3643529D01*
X16727586Y3641958D01*
X16728418Y3640478D01*
X16729527Y3639092D01*
X16729712Y3638907D01*
X16730174Y3638537D01*
X16730914Y3637982D01*
X16732024Y3637427D01*
X16733318Y3636780D01*
X16734982Y3636225D01*
X16736832Y3635856D01*
X16738959Y3635671D01*
X16738126Y3627627D01*
X16738033D01*
X16737756Y3627719D01*
X16737294D01*
X16736646Y3627812D01*
X16735907Y3627997D01*
X16735075Y3628182D01*
X16734058Y3628459D01*
X16733041Y3628736D01*
X16730823Y3629476D01*
X16728603Y3630586D01*
X16727493Y3631233D01*
X16726384Y3632065D01*
X16725368Y3632897D01*
X16724442Y3633822D01*
X16724350Y3633914D01*
X16724257Y3634099D01*
X16723981Y3634376D01*
X16723703Y3634839D01*
X16723334Y3635393D01*
X16722963Y3636040D01*
X16722501Y3636780D01*
X16722038Y3637705D01*
X16721576Y3638722D01*
X16721114Y3639831D01*
X16720744Y3641033D01*
X16720374Y3642327D01*
X16720097Y3643714D01*
X16719820Y3645194D01*
X16719727Y3646765D01*
X16719635Y3648430D01*
Y3649354D01*
X16719727Y3650001D01*
X16719820Y3650741D01*
X16719913Y3651666D01*
X16720097Y3652683D01*
X16720282Y3653700D01*
X16720929Y3656103D01*
X16721854Y3658507D01*
X16722408Y3659709D01*
X16723055Y3660911D01*
X16723888Y3662021D01*
X16724812Y3663038D01*
X16724905Y3663130D01*
X16724997Y3663315D01*
X16725368Y3663500D01*
X16725737Y3663870D01*
X16726199Y3664332D01*
X16726846Y3664794D01*
X16727493Y3665257D01*
X16728325Y3665811D01*
X16730083Y3666736D01*
X16732301Y3667660D01*
X16733411Y3668030D01*
X16734705Y3668215D01*
X16735999Y3668400D01*
X16737386Y3668493D01*
X16737572D01*
X16738033D01*
X16738773Y3668400D01*
X16739790Y3668308D01*
X16740900Y3668123D01*
X16742194Y3667753D01*
X16743581Y3667383D01*
X16744968Y3666828D01*
X16745152Y3666736D01*
X16745615Y3666551D01*
X16746355Y3666181D01*
X16747371Y3665626D01*
X16748482Y3664887D01*
X16749867Y3663962D01*
X16751254Y3662853D01*
X16752826Y3661558D01*
X16753011Y3661373D01*
X16753566Y3660911D01*
X16754028Y3660449D01*
X16754491Y3659987D01*
X16755045Y3659432D01*
X16755785Y3658692D01*
X16756525Y3657953D01*
X16757356Y3657028D01*
X16758281Y3656103D01*
X16759299Y3654994D01*
X16760315Y3653792D01*
X16761517Y3652498D01*
X16762720Y3651018D01*
X16764014Y3649539D01*
X16764107Y3649447D01*
X16764291Y3649262D01*
X16764568Y3648892D01*
X16764938Y3648430D01*
X16765492Y3647875D01*
X16766048Y3647228D01*
X16767249Y3645748D01*
X16768636Y3644177D01*
X16770023Y3642697D01*
X16771225Y3641403D01*
X16771687Y3640848D01*
X16772150Y3640386D01*
X16772243Y3640293D01*
X16772519Y3640016D01*
X16772890Y3639646D01*
X16773444Y3639184D01*
X16774091Y3638722D01*
X16774738Y3638167D01*
X16776311Y3637057D01*
Y3668585D01*
X16783891D01*
Y3626148D01*
D02*
G37*
G36*
X16765585Y3616532D02*
X16766325D01*
X16768082Y3616347D01*
X16770116Y3616162D01*
X16772243Y3615793D01*
X16774184Y3615238D01*
X16776033Y3614591D01*
X16776125D01*
X16776218Y3614498D01*
X16776772Y3614221D01*
X16777512Y3613759D01*
X16778529Y3613111D01*
X16779546Y3612187D01*
X16780656Y3611170D01*
X16781766Y3609875D01*
X16782690Y3608396D01*
X16782782Y3608211D01*
X16783060Y3607656D01*
X16783429Y3606824D01*
X16783800Y3605622D01*
X16784261Y3604143D01*
X16784631Y3602479D01*
X16784909Y3600630D01*
X16785001Y3598596D01*
Y3597764D01*
X16784909Y3597209D01*
X16784816Y3596469D01*
X16784724Y3595730D01*
X16784354Y3593788D01*
X16783800Y3591754D01*
X16782967Y3589628D01*
X16782413Y3588518D01*
X16781766Y3587501D01*
X16781026Y3586577D01*
X16780193Y3585652D01*
X16780101Y3585560D01*
X16780008Y3585467D01*
X16779639Y3585282D01*
X16779269Y3585005D01*
X16778806Y3584635D01*
X16778159Y3584265D01*
X16777420Y3583895D01*
X16776587Y3583433D01*
X16775664Y3583063D01*
X16774553Y3582693D01*
X16773444Y3582324D01*
X16772150Y3581954D01*
X16770763Y3581769D01*
X16769191Y3581491D01*
X16767619Y3581399D01*
X16765863D01*
X16764754Y3589073D01*
X16764845D01*
X16765030D01*
X16765401D01*
X16765955Y3589165D01*
X16766510Y3589258D01*
X16767157D01*
X16768729Y3589535D01*
X16770393Y3589812D01*
X16772057Y3590367D01*
X16773537Y3590922D01*
X16774184Y3591292D01*
X16774738Y3591754D01*
X16774831Y3591847D01*
X16775108Y3592216D01*
X16775571Y3592771D01*
X16776033Y3593511D01*
X16776587Y3594528D01*
X16776958Y3595637D01*
X16777327Y3597024D01*
X16777420Y3598503D01*
Y3599058D01*
X16777327Y3599613D01*
X16777235Y3600445D01*
X16777049Y3601277D01*
X16776865Y3602202D01*
X16776495Y3603126D01*
X16776033Y3604051D01*
X16775940Y3604143D01*
X16775755Y3604421D01*
X16775386Y3604790D01*
X16775015Y3605345D01*
X16774368Y3605807D01*
X16773721Y3606362D01*
X16772981Y3606824D01*
X16772057Y3607194D01*
X16771965D01*
X16771594Y3607379D01*
X16770947Y3607472D01*
X16770116Y3607656D01*
X16769006Y3607841D01*
X16767619Y3607934D01*
X16765955Y3608119D01*
X16764014D01*
X16719913D01*
Y3616625D01*
X16763551D01*
X16763644D01*
X16763921D01*
X16764291D01*
X16764845D01*
X16765585Y3616532D01*
D02*
G37*
G36*
X16354726Y3577709D02*
X16355649D01*
X16356573Y3577616D01*
X16357776Y3577524D01*
X16358978Y3577339D01*
X16361659Y3576877D01*
X16364618Y3576229D01*
X16367577Y3575305D01*
X16370442Y3574010D01*
X16370535Y3573918D01*
X16370811Y3573825D01*
X16371182Y3573641D01*
X16371645Y3573271D01*
X16372292Y3572901D01*
X16373032Y3572439D01*
X16374695Y3571237D01*
X16376544Y3569665D01*
X16378394Y3567816D01*
X16380243Y3565689D01*
X16381815Y3563193D01*
X16381908Y3563101D01*
X16381999Y3562823D01*
X16382184Y3562453D01*
X16382462Y3561991D01*
X16382739Y3561251D01*
X16383015Y3560512D01*
X16383386Y3559587D01*
X16383755Y3558570D01*
X16384126Y3557461D01*
X16384496Y3556259D01*
X16385049Y3553670D01*
X16385513Y3550711D01*
X16385696Y3547660D01*
Y3546736D01*
X16385605Y3546089D01*
X16385513Y3545257D01*
X16385420Y3544240D01*
X16385329Y3543223D01*
X16385049Y3542021D01*
X16384496Y3539524D01*
X16383662Y3536751D01*
X16383109Y3535364D01*
X16382462Y3534069D01*
X16381628Y3532775D01*
X16380797Y3531481D01*
X16380705Y3531388D01*
X16380612Y3531203D01*
X16380334Y3530833D01*
X16379874Y3530371D01*
X16379410Y3529909D01*
X16378763Y3529262D01*
X16378024Y3528614D01*
X16377284Y3527875D01*
X16376360Y3527135D01*
X16375250Y3526396D01*
X16374139Y3525563D01*
X16372939Y3524824D01*
X16371552Y3524177D01*
X16370164Y3523437D01*
X16368686Y3522882D01*
X16367021Y3522327D01*
X16365080Y3530649D01*
X16365172D01*
X16365356Y3530741D01*
X16365727Y3530926D01*
X16366190Y3531111D01*
X16366743Y3531296D01*
X16367484Y3531573D01*
X16368964Y3532313D01*
X16370627Y3533237D01*
X16372292Y3534347D01*
X16373863Y3535734D01*
X16375250Y3537213D01*
X16375435Y3537398D01*
X16375806Y3537953D01*
X16376266Y3538877D01*
X16376913Y3540079D01*
X16377469Y3541651D01*
X16378024Y3543407D01*
X16378394Y3545534D01*
X16378487Y3547845D01*
Y3548585D01*
X16378394Y3549047D01*
Y3549694D01*
X16378300Y3550434D01*
X16378024Y3552191D01*
X16377654Y3554132D01*
X16377007Y3556166D01*
X16376082Y3558293D01*
X16374879Y3560234D01*
Y3560327D01*
X16374695Y3560419D01*
X16374232Y3561067D01*
X16373492Y3561899D01*
X16372385Y3562916D01*
X16370998Y3564118D01*
X16369424Y3565227D01*
X16367484Y3566244D01*
X16365356Y3567169D01*
X16365265D01*
X16365080Y3567261D01*
X16364803Y3567354D01*
X16364340Y3567446D01*
X16363785Y3567631D01*
X16363138Y3567816D01*
X16361566Y3568093D01*
X16359717Y3568463D01*
X16357683Y3568833D01*
X16355464Y3569018D01*
X16353061Y3569110D01*
X16352968D01*
X16352692D01*
X16352228D01*
X16351674D01*
X16351025Y3569018D01*
X16350194D01*
X16349271Y3568925D01*
X16348253Y3568833D01*
X16346034Y3568555D01*
X16343629Y3568093D01*
X16341226Y3567538D01*
X16338821Y3566799D01*
X16338730D01*
X16338545Y3566706D01*
X16338268Y3566521D01*
X16337805Y3566337D01*
X16336696Y3565782D01*
X16335400Y3564950D01*
X16333922Y3563933D01*
X16332350Y3562638D01*
X16330965Y3561159D01*
X16329669Y3559402D01*
Y3559310D01*
X16329578Y3559125D01*
X16329391Y3558848D01*
X16329207Y3558478D01*
X16329022Y3558015D01*
X16328745Y3557461D01*
X16328191Y3556166D01*
X16327635Y3554502D01*
X16327173Y3552653D01*
X16326804Y3550619D01*
X16326711Y3548493D01*
Y3547845D01*
X16326804Y3547291D01*
Y3546643D01*
X16326895Y3545996D01*
X16327264Y3544332D01*
X16327728Y3542390D01*
X16328467Y3540449D01*
X16329485Y3538415D01*
X16330038Y3537398D01*
X16330779Y3536473D01*
X16330872Y3536381D01*
X16330965Y3536288D01*
X16331241Y3536011D01*
X16331519Y3535641D01*
X16331981Y3535271D01*
X16332535Y3534809D01*
X16333090Y3534254D01*
X16333830Y3533792D01*
X16334662Y3533237D01*
X16335587Y3532590D01*
X16336511Y3532035D01*
X16337621Y3531481D01*
X16338821Y3531018D01*
X16340117Y3530556D01*
X16341504Y3530094D01*
X16342982Y3529724D01*
X16340855Y3521218D01*
X16340764D01*
X16340395Y3521310D01*
X16339839Y3521495D01*
X16339101Y3521773D01*
X16338268Y3522050D01*
X16337251Y3522420D01*
X16336140Y3522882D01*
X16334940Y3523437D01*
X16332350Y3524731D01*
X16329762Y3526396D01*
X16328467Y3527413D01*
X16327173Y3528430D01*
X16326064Y3529539D01*
X16324954Y3530833D01*
X16324861Y3530926D01*
X16324677Y3531111D01*
X16324492Y3531573D01*
X16324123Y3532035D01*
X16323660Y3532775D01*
X16323196Y3533515D01*
X16322736Y3534532D01*
X16322273Y3535549D01*
X16321718Y3536751D01*
X16321255Y3538045D01*
X16320793Y3539432D01*
X16320331Y3540911D01*
X16319962Y3542483D01*
X16319775Y3544147D01*
X16319591Y3545904D01*
X16319499Y3547753D01*
Y3548770D01*
X16319591Y3549510D01*
Y3550342D01*
X16319684Y3551359D01*
X16319868Y3552468D01*
X16320055Y3553763D01*
X16320515Y3556444D01*
X16321255Y3559217D01*
X16322273Y3561991D01*
X16322920Y3563285D01*
X16323660Y3564580D01*
X16323752Y3564672D01*
X16323843Y3564857D01*
X16324123Y3565227D01*
X16324492Y3565597D01*
X16324861Y3566152D01*
X16325417Y3566799D01*
X16326064Y3567538D01*
X16326804Y3568278D01*
X16327635Y3569018D01*
X16328467Y3569850D01*
X16330594Y3571514D01*
X16333090Y3573086D01*
X16335864Y3574473D01*
X16335956D01*
X16336234Y3574658D01*
X16336696Y3574750D01*
X16337251Y3575027D01*
X16337990Y3575212D01*
X16338914Y3575490D01*
X16339932Y3575859D01*
X16341042Y3576137D01*
X16342242Y3576414D01*
X16343629Y3576784D01*
X16346497Y3577246D01*
X16349731Y3577616D01*
X16353061Y3577801D01*
X16353152D01*
X16353523D01*
X16354079D01*
X16354726Y3577709D01*
D02*
G37*
G36*
X16322365Y3515023D02*
X16323196Y3514931D01*
X16324123Y3514746D01*
X16325046Y3514561D01*
X16326064Y3514191D01*
X16326157D01*
X16326248Y3514099D01*
X16326804Y3513914D01*
X16327635Y3513544D01*
X16328745Y3512989D01*
X16330038Y3512250D01*
X16331519Y3511325D01*
X16332999Y3510308D01*
X16334569Y3509014D01*
X16334662D01*
X16334753Y3508829D01*
X16335309Y3508367D01*
X16336140Y3507535D01*
X16337343Y3506333D01*
X16338730Y3504946D01*
X16340395Y3503189D01*
X16342242Y3501063D01*
X16344185Y3498751D01*
X16344276Y3498659D01*
X16344556Y3498289D01*
X16345016Y3497734D01*
X16345572Y3497087D01*
X16346310Y3496255D01*
X16347144Y3495238D01*
X16348068Y3494221D01*
X16349084Y3493019D01*
X16351305Y3490708D01*
X16353523Y3488396D01*
X16354633Y3487287D01*
X16355742Y3486270D01*
X16356760Y3485345D01*
X16357776Y3484605D01*
X16357867D01*
X16357961Y3484421D01*
X16358238Y3484236D01*
X16358607Y3484051D01*
X16359625Y3483403D01*
X16360828Y3482664D01*
X16362306Y3482017D01*
X16363878Y3481369D01*
X16365636Y3481000D01*
X16367299Y3480815D01*
X16367390D01*
X16367484D01*
X16368037Y3480907D01*
X16368964Y3481000D01*
X16369980Y3481277D01*
X16371274Y3481647D01*
X16372569Y3482294D01*
X16373863Y3483126D01*
X16375157Y3484236D01*
X16375342Y3484421D01*
X16375713Y3484883D01*
X16376175Y3485530D01*
X16376822Y3486547D01*
X16377376Y3487841D01*
X16377931Y3489321D01*
X16378300Y3491077D01*
X16378394Y3493019D01*
Y3493574D01*
X16378300Y3493943D01*
X16378209Y3495053D01*
X16377931Y3496347D01*
X16377560Y3497734D01*
X16376913Y3499306D01*
X16376082Y3500785D01*
X16374973Y3502172D01*
X16374788Y3502357D01*
X16374326Y3502727D01*
X16373586Y3503282D01*
X16372476Y3503836D01*
X16371182Y3504483D01*
X16369518Y3505038D01*
X16367670Y3505408D01*
X16365543Y3505593D01*
X16366374Y3513637D01*
X16366467D01*
X16366743Y3513544D01*
X16367206D01*
X16367853Y3513452D01*
X16368593Y3513267D01*
X16369424Y3513082D01*
X16370442Y3512805D01*
X16371458Y3512527D01*
X16373679Y3511787D01*
X16375897Y3510678D01*
X16377007Y3510031D01*
X16378116Y3509199D01*
X16379134Y3508367D01*
X16380058Y3507442D01*
X16380150Y3507350D01*
X16380243Y3507165D01*
X16380521Y3506887D01*
X16380797Y3506425D01*
X16381168Y3505870D01*
X16381537Y3505223D01*
X16381999Y3504483D01*
X16382462Y3503559D01*
X16382924Y3502542D01*
X16383386Y3501432D01*
X16383755Y3500230D01*
X16384126Y3498936D01*
X16384402Y3497549D01*
X16384680Y3496070D01*
X16384773Y3494498D01*
X16384865Y3492834D01*
Y3491909D01*
X16384773Y3491262D01*
X16384680Y3490523D01*
X16384589Y3489598D01*
X16384402Y3488581D01*
X16384218Y3487564D01*
X16383571Y3485160D01*
X16382646Y3482756D01*
X16382092Y3481554D01*
X16381445Y3480352D01*
X16380612Y3479243D01*
X16379688Y3478226D01*
X16379594Y3478134D01*
X16379503Y3477949D01*
X16379134Y3477764D01*
X16378763Y3477394D01*
X16378300Y3476932D01*
X16377654Y3476469D01*
X16377007Y3476007D01*
X16376175Y3475452D01*
X16374419Y3474528D01*
X16372198Y3473603D01*
X16371089Y3473233D01*
X16369795Y3473048D01*
X16368501Y3472864D01*
X16367114Y3472771D01*
X16366930D01*
X16366467D01*
X16365727Y3472864D01*
X16364709Y3472956D01*
X16363600Y3473141D01*
X16362306Y3473511D01*
X16360919Y3473881D01*
X16359532Y3474435D01*
X16359348Y3474528D01*
X16358885Y3474713D01*
X16358147Y3475082D01*
X16357129Y3475637D01*
X16356020Y3476377D01*
X16354633Y3477301D01*
X16353246Y3478411D01*
X16351674Y3479705D01*
X16351489Y3479890D01*
X16350934Y3480352D01*
X16350471Y3480815D01*
X16350009Y3481277D01*
X16349455Y3481832D01*
X16348715Y3482571D01*
X16347975Y3483311D01*
X16347144Y3484236D01*
X16346219Y3485160D01*
X16345203Y3486270D01*
X16344185Y3487472D01*
X16342982Y3488766D01*
X16341782Y3490245D01*
X16340486Y3491725D01*
X16340395Y3491817D01*
X16340208Y3492002D01*
X16339932Y3492372D01*
X16339561Y3492834D01*
X16339008Y3493389D01*
X16338452Y3494036D01*
X16337251Y3495515D01*
X16335864Y3497087D01*
X16334477Y3498566D01*
X16333275Y3499861D01*
X16332812Y3500415D01*
X16332350Y3500878D01*
X16332259Y3500970D01*
X16331981Y3501248D01*
X16331612Y3501617D01*
X16331056Y3502080D01*
X16330409Y3502542D01*
X16329762Y3503097D01*
X16328191Y3504206D01*
Y3472679D01*
X16320609D01*
Y3515116D01*
X16320702D01*
X16321071D01*
X16321625D01*
X16322365Y3515023D01*
D02*
G37*
G36*
X15973096Y3603405D02*
Y3603313D01*
Y3602943D01*
Y3602481D01*
Y3601834D01*
X15973003Y3601001D01*
Y3600077D01*
X15972910Y3598967D01*
X15972816Y3597858D01*
X15972540Y3595362D01*
X15972169Y3592773D01*
X15971616Y3590277D01*
X15971246Y3589075D01*
X15970876Y3587965D01*
Y3587873D01*
X15970782Y3587688D01*
X15970598Y3587410D01*
X15970415Y3587041D01*
X15969859Y3586024D01*
X15969028Y3584729D01*
X15967917Y3583250D01*
X15966623Y3581771D01*
X15964960Y3580199D01*
X15962926Y3578812D01*
X15962833D01*
X15962646Y3578627D01*
X15962370Y3578535D01*
X15961908Y3578257D01*
X15961353Y3577980D01*
X15960612Y3577703D01*
X15959874Y3577425D01*
X15958949Y3577055D01*
X15957932Y3576686D01*
X15956824Y3576408D01*
X15955621Y3576131D01*
X15954234Y3575853D01*
X15952847Y3575668D01*
X15951369Y3575484D01*
X15948039Y3575299D01*
X15947208D01*
X15946561Y3575391D01*
X15945821D01*
X15944896Y3575484D01*
X15943880Y3575576D01*
X15942862Y3575668D01*
X15940550Y3576038D01*
X15938054Y3576593D01*
X15935651Y3577333D01*
X15933339Y3578350D01*
X15933246D01*
X15933061Y3578535D01*
X15932784Y3578720D01*
X15932414Y3578904D01*
X15931396Y3579644D01*
X15930196Y3580661D01*
X15928809Y3581955D01*
X15927515Y3583435D01*
X15926221Y3585284D01*
X15925203Y3587318D01*
Y3587410D01*
X15925110Y3587595D01*
X15925018Y3587965D01*
X15924834Y3588427D01*
X15924648Y3588982D01*
X15924463Y3589722D01*
X15924187Y3590554D01*
X15924001Y3591571D01*
X15923816Y3592680D01*
X15923538Y3593882D01*
X15923354Y3595177D01*
X15923169Y3596564D01*
X15922984Y3598135D01*
X15922891Y3599800D01*
X15922800Y3601556D01*
Y3603405D01*
Y3640388D01*
X15931305D01*
Y3603405D01*
Y3603313D01*
Y3603035D01*
Y3602573D01*
Y3602018D01*
X15931396Y3601371D01*
Y3600539D01*
X15931490Y3598782D01*
X15931676Y3596748D01*
X15931952Y3594714D01*
X15932323Y3592773D01*
X15932507Y3591941D01*
X15932784Y3591109D01*
X15932877Y3590924D01*
X15933061Y3590461D01*
X15933524Y3589814D01*
X15934077Y3588890D01*
X15934726Y3587965D01*
X15935651Y3586948D01*
X15936760Y3585931D01*
X15938054Y3585099D01*
X15938239Y3585007D01*
X15938701Y3584729D01*
X15939532Y3584452D01*
X15940643Y3584082D01*
X15941937Y3583620D01*
X15943600Y3583342D01*
X15945358Y3583065D01*
X15947301Y3582973D01*
X15948224D01*
X15948779Y3583065D01*
X15949611D01*
X15950443Y3583157D01*
X15952477Y3583527D01*
X15954697Y3583990D01*
X15956824Y3584729D01*
X15958858Y3585746D01*
X15959781Y3586393D01*
X15960612Y3587133D01*
X15960706Y3587225D01*
X15960799Y3587318D01*
X15960983Y3587595D01*
X15961259Y3587965D01*
X15961539Y3588520D01*
X15961908Y3589075D01*
X15962277Y3589907D01*
X15962646Y3590739D01*
X15963017Y3591756D01*
X15963293Y3592958D01*
X15963664Y3594345D01*
X15963942Y3595824D01*
X15964220Y3597488D01*
X15964404Y3599245D01*
X15964589Y3601279D01*
Y3603405D01*
Y3640388D01*
X15973096D01*
Y3603405D01*
D02*
G37*
G36*
X16013591Y3576408D02*
X16005733D01*
Y3626427D01*
X16005640Y3626334D01*
X16005177Y3625965D01*
X16004622Y3625410D01*
X16003699Y3624763D01*
X16002681Y3623931D01*
X16001385Y3623006D01*
X15999907Y3621989D01*
X15998244Y3620972D01*
X15998151D01*
X15998058Y3620879D01*
X15997504Y3620510D01*
X15996579Y3620047D01*
X15995470Y3619493D01*
X15994176Y3618845D01*
X15992789Y3618198D01*
X15991402Y3617551D01*
X15990015Y3616996D01*
Y3624578D01*
X15990108D01*
X15990292Y3624763D01*
X15990662Y3624855D01*
X15991124Y3625132D01*
X15991678Y3625410D01*
X15992326Y3625780D01*
X15993896Y3626704D01*
X15995747Y3627721D01*
X15997597Y3629016D01*
X15999538Y3630495D01*
X16001479Y3632067D01*
X16001572Y3632159D01*
X16001665Y3632252D01*
X16001941Y3632529D01*
X16002312Y3632806D01*
X16003143Y3633731D01*
X16004253Y3634840D01*
X16005362Y3636135D01*
X16006564Y3637614D01*
X16007581Y3639093D01*
X16008505Y3640665D01*
X16013591D01*
Y3576408D01*
D02*
G37*
G36*
X15554623Y3581308D02*
X15555550D01*
X15556474Y3581216D01*
X15557677Y3581123D01*
X15558878Y3580938D01*
X15561559Y3580476D01*
X15564517Y3579829D01*
X15567476Y3578904D01*
X15570341Y3577610D01*
X15570435Y3577518D01*
X15570712Y3577425D01*
X15571082Y3577240D01*
X15571544Y3576870D01*
X15572191Y3576501D01*
X15572931Y3576038D01*
X15574596Y3574836D01*
X15576443Y3573265D01*
X15578293Y3571416D01*
X15580142Y3569289D01*
X15581714Y3566793D01*
X15581807Y3566700D01*
X15581898Y3566423D01*
X15582085Y3566053D01*
X15582361Y3565591D01*
X15582639Y3564851D01*
X15582916Y3564111D01*
X15583286Y3563187D01*
X15583656Y3562170D01*
X15584026Y3561060D01*
X15584395Y3559859D01*
X15584950Y3557270D01*
X15585413Y3554311D01*
X15585597Y3551260D01*
Y3550336D01*
X15585506Y3549688D01*
X15585413Y3548856D01*
X15585320Y3547839D01*
X15585226Y3546822D01*
X15584950Y3545620D01*
X15584395Y3543124D01*
X15583563Y3540350D01*
X15583008Y3538963D01*
X15582361Y3537669D01*
X15581529Y3536375D01*
X15580698Y3535080D01*
X15580605Y3534988D01*
X15580511Y3534803D01*
X15580235Y3534433D01*
X15579771Y3533971D01*
X15579311Y3533509D01*
X15578664Y3532861D01*
X15577924Y3532214D01*
X15577184Y3531475D01*
X15576259Y3530735D01*
X15575150Y3529995D01*
X15574040Y3529163D01*
X15572838Y3528423D01*
X15571451Y3527776D01*
X15570065Y3527037D01*
X15568585Y3526482D01*
X15566920Y3525927D01*
X15564980Y3534248D01*
X15565073D01*
X15565257Y3534341D01*
X15565627Y3534526D01*
X15566089Y3534710D01*
X15566644Y3534895D01*
X15567383Y3535173D01*
X15568863Y3535912D01*
X15570528Y3536837D01*
X15572191Y3537946D01*
X15573763Y3539333D01*
X15575150Y3540813D01*
X15575336Y3540997D01*
X15575703Y3541552D01*
X15576167Y3542477D01*
X15576814Y3543679D01*
X15577370Y3545250D01*
X15577924Y3547007D01*
X15578293Y3549134D01*
X15578386Y3551445D01*
Y3552185D01*
X15578293Y3552647D01*
Y3553294D01*
X15578201Y3554034D01*
X15577924Y3555790D01*
X15577554Y3557732D01*
X15576906Y3559766D01*
X15575983Y3561893D01*
X15574780Y3563834D01*
Y3563927D01*
X15574596Y3564019D01*
X15574133Y3564666D01*
X15573393Y3565498D01*
X15572284Y3566515D01*
X15570897Y3567717D01*
X15569325Y3568827D01*
X15567383Y3569844D01*
X15565257Y3570768D01*
X15565164D01*
X15564980Y3570861D01*
X15564702Y3570953D01*
X15564240Y3571046D01*
X15563686Y3571231D01*
X15563039Y3571416D01*
X15561465Y3571693D01*
X15559618Y3572063D01*
X15557584Y3572433D01*
X15555363Y3572617D01*
X15552960Y3572710D01*
X15552869D01*
X15552589D01*
X15552129D01*
X15551573D01*
X15550926Y3572617D01*
X15550095D01*
X15549170Y3572525D01*
X15548154Y3572433D01*
X15545934Y3572155D01*
X15543530Y3571693D01*
X15541125Y3571138D01*
X15538722Y3570398D01*
X15538631D01*
X15538445Y3570306D01*
X15538167Y3570121D01*
X15537704Y3569936D01*
X15536597Y3569381D01*
X15535301Y3568549D01*
X15533823Y3567532D01*
X15532249Y3566238D01*
X15530862Y3564759D01*
X15529568Y3563002D01*
Y3562910D01*
X15529475Y3562725D01*
X15529292Y3562447D01*
X15529108Y3562077D01*
X15528922Y3561615D01*
X15528644Y3561060D01*
X15528090Y3559766D01*
X15527534Y3558102D01*
X15527074Y3556253D01*
X15526703Y3554219D01*
X15526610Y3552092D01*
Y3551445D01*
X15526703Y3550890D01*
Y3550243D01*
X15526794Y3549596D01*
X15527165Y3547932D01*
X15527628Y3545990D01*
X15528368Y3544049D01*
X15529384Y3542015D01*
X15529939Y3540997D01*
X15530678Y3540073D01*
X15530771Y3539980D01*
X15530862Y3539888D01*
X15531142Y3539611D01*
X15531418Y3539241D01*
X15531880Y3538871D01*
X15532436Y3538409D01*
X15532990Y3537854D01*
X15533730Y3537392D01*
X15534563Y3536837D01*
X15535486Y3536190D01*
X15536411Y3535635D01*
X15537520Y3535080D01*
X15538722Y3534618D01*
X15540016Y3534156D01*
X15541403Y3533693D01*
X15542883Y3533324D01*
X15540756Y3524818D01*
X15540665D01*
X15540294Y3524910D01*
X15539738Y3525095D01*
X15538998Y3525372D01*
X15538167Y3525650D01*
X15537151Y3526020D01*
X15536041Y3526482D01*
X15534839Y3527037D01*
X15532249Y3528331D01*
X15529662Y3529995D01*
X15528368Y3531012D01*
X15527074Y3532029D01*
X15525963Y3533139D01*
X15524854Y3534433D01*
X15524760Y3534526D01*
X15524576Y3534710D01*
X15524391Y3535173D01*
X15524022Y3535635D01*
X15523560Y3536375D01*
X15523097Y3537114D01*
X15522635Y3538131D01*
X15522173Y3539148D01*
X15521619Y3540350D01*
X15521155Y3541645D01*
X15520692Y3543032D01*
X15520232Y3544511D01*
X15519861Y3546083D01*
X15519676Y3547747D01*
X15519492Y3549503D01*
X15519398Y3551353D01*
Y3552370D01*
X15519492Y3553109D01*
Y3553941D01*
X15519585Y3554958D01*
X15519769Y3556068D01*
X15519952Y3557362D01*
X15520416Y3560043D01*
X15521155Y3562817D01*
X15522173Y3565591D01*
X15522820Y3566885D01*
X15523560Y3568180D01*
X15523653Y3568272D01*
X15523744Y3568457D01*
X15524022Y3568827D01*
X15524391Y3569197D01*
X15524760Y3569751D01*
X15525316Y3570398D01*
X15525963Y3571138D01*
X15526703Y3571878D01*
X15527534Y3572617D01*
X15528368Y3573450D01*
X15530493Y3575114D01*
X15532990Y3576686D01*
X15535764Y3578072D01*
X15535857D01*
X15536133Y3578257D01*
X15536597Y3578350D01*
X15537151Y3578627D01*
X15537891Y3578812D01*
X15538814Y3579089D01*
X15539832Y3579459D01*
X15540941Y3579737D01*
X15542143Y3580014D01*
X15543530Y3580384D01*
X15546396Y3580846D01*
X15549632Y3581216D01*
X15552960Y3581401D01*
X15553053D01*
X15553423D01*
X15553976D01*
X15554623Y3581308D01*
D02*
G37*
G36*
X15568678Y3511504D02*
X15568863Y3511319D01*
X15568954Y3510949D01*
X15569234Y3510487D01*
X15569510Y3509932D01*
X15569881Y3509285D01*
X15570804Y3507713D01*
X15571822Y3505864D01*
X15573116Y3504015D01*
X15574596Y3502074D01*
X15576167Y3500132D01*
X15576259Y3500039D01*
X15576352Y3499947D01*
X15576630Y3499670D01*
X15576906Y3499300D01*
X15577831Y3498468D01*
X15578940Y3497358D01*
X15580235Y3496249D01*
X15581714Y3495047D01*
X15583192Y3494030D01*
X15584766Y3493105D01*
Y3488020D01*
X15520508D01*
Y3495879D01*
X15570528D01*
X15570435Y3495971D01*
X15570065Y3496434D01*
X15569510Y3496988D01*
X15568863Y3497913D01*
X15568031Y3498930D01*
X15567107Y3500224D01*
X15566089Y3501704D01*
X15565073Y3503368D01*
Y3503460D01*
X15564980Y3503553D01*
X15564610Y3504108D01*
X15564146Y3505032D01*
X15563593Y3506142D01*
X15562946Y3507436D01*
X15562299Y3508823D01*
X15561652Y3510210D01*
X15561096Y3511596D01*
X15568678D01*
Y3511504D01*
D02*
G37*
D19*
X14761200Y3888900D02*
X15321201D01*
X14761200Y3273900D02*
Y3888900D01*
Y3273900D02*
X15321201D01*
Y3888900D01*
X16505000Y3273900D02*
X17064999D01*
Y3888900D01*
X16505000D02*
X17064999D01*
X16505000Y3273900D02*
Y3888900D01*
X16214500Y3737800D02*
X16424500D01*
X16214500Y3417800D02*
Y3737800D01*
Y3417800D02*
X16424500D01*
Y3737800D01*
X15732800Y3415300D02*
Y3735300D01*
Y3415300D02*
X16112801D01*
Y3735300D01*
X15732800D02*
X16112801D01*
X15414400Y3741400D02*
X15624400D01*
X15414400Y3421400D02*
Y3741400D01*
Y3421400D02*
X15624400D01*
Y3741400D01*
%TF.MD5,9e024cd2490fe28391728df13d7c3c13*%
M02*
