%TF.GenerationSoftware,Altium Limited,Altium Designer,22.8.2 (66)*%
G04 Layer_Physical_Order=1*
G04 Layer_Color=255*
%FSLAX45Y45*%
%MOMM*%
%TF.SameCoordinates,48D8F32F-6FDE-41FD-AEFC-798A3E81C4E6*%
%TF.FilePolarity,Positive*%
%TF.FileFunction,Copper,L1,Top,Signal*%
%TF.Part,Single*%
G01*
G75*
%TA.AperFunction,Conductor*%
%ADD10C,0.50000*%
%TA.AperFunction,NonConductor*%
%ADD11C,0.25400*%
%TA.AperFunction,SMDPad,CuDef*%
%ADD12R,1.70000X0.60000*%
%ADD13R,2.70000X1.00000*%
%ADD14R,1.40000X0.95000*%
%ADD15R,1.00000X0.66000*%
%TA.AperFunction,ViaPad*%
%ADD16C,0.76200*%
D10*
X15792799Y3670300D02*
G03*
X15784109Y3673900I-8691J-8691D01*
G01*
X15298627D02*
G03*
X15226199Y3643900I0J-102426D01*
G01*
X15792799Y3388502D02*
Y3480300D01*
X16600000Y3643900D02*
X16815800D01*
X16319501Y3327400D02*
Y3485300D01*
X15687550Y3578350D02*
X15789751D01*
X15792799Y3575300D01*
X15684500Y3581400D02*
X15687550Y3578350D01*
X15519400Y3673900D02*
X15784109D01*
X15298627D02*
X15519400D01*
Y3365500D02*
Y3488900D01*
X15226199Y3518900D02*
X15367000D01*
X16364500Y3647800D02*
X16539999Y3523900D01*
X16319501Y3670300D02*
X16364500Y3647800D01*
X16539999Y3523900D02*
X16600000Y3518900D01*
X15792799Y3670300D02*
X15800800Y3662300D01*
X15792799Y3480300D02*
X15809801D01*
X15843491Y3662300D02*
X15847090Y3658700D01*
X15863676D02*
X15893201Y3629176D01*
X15863676Y3491900D02*
X15893201Y3521423D01*
X15821400Y3491900D02*
X15863676D01*
X15893201Y3521423D02*
Y3629176D01*
X15847090Y3658700D02*
X15863676D01*
X15800800Y3662300D02*
X15843491D01*
X15809801Y3480300D02*
X15821400Y3491900D01*
X15519400Y3488900D02*
Y3575300D01*
X16052800Y3670300D02*
X16319501D01*
D11*
X14478000Y3302000D02*
G03*
X14605000Y3175000I127000J0D01*
G01*
Y4000500D02*
G03*
X14478000Y3873500I0J-127000D01*
G01*
X17399001D02*
G03*
X17272000Y4000500I-127000J0D01*
G01*
Y3175000D02*
G03*
X17399001Y3302000I0J127000D01*
G01*
X14605000Y3175000D02*
X15062199D01*
X14478000Y3302000D02*
Y3873500D01*
X14605000Y4000500D02*
X17272000D01*
X17399001Y3302000D02*
Y3873500D01*
X15062199Y3175000D02*
X17272000D01*
D12*
X15226199Y3518900D02*
D03*
Y3643900D02*
D03*
X16600000D02*
D03*
Y3518900D02*
D03*
D13*
X14906200Y3333900D02*
D03*
Y3828900D02*
D03*
X16920000D02*
D03*
Y3333900D02*
D03*
D14*
X16319501Y3485300D02*
D03*
Y3670300D02*
D03*
X15519400Y3488900D02*
D03*
Y3673900D02*
D03*
D15*
X16052800Y3670300D02*
D03*
Y3480300D02*
D03*
X15792799D02*
D03*
Y3575300D02*
D03*
Y3670300D02*
D03*
D16*
Y3388502D02*
D03*
X16815800Y3643900D02*
D03*
X16319501Y3327400D02*
D03*
X15684500Y3581400D02*
D03*
X15367000Y3518900D02*
D03*
X15519400Y3365500D02*
D03*
%TF.MD5,782e20481f335b1be582c765db64399b*%
M02*
