%TF.GenerationSoftware,Altium Limited,Altium Designer,22.8.2 (66)*%
G04 Layer_Color=65535*
%FSLAX45Y45*%
%MOMM*%
%TF.SameCoordinates,48D8F32F-6FDE-41FD-AEFC-798A3E81C4E6*%
%TF.FilePolarity,Positive*%
%TF.FileFunction,Legend,Top*%
%TF.Part,Single*%
G01*
G75*
%TA.AperFunction,NonConductor*%
%ADD11C,0.25400*%
%ADD18C,0.25000*%
%ADD19C,0.20000*%
D11*
X15815710Y3327367D02*
X15748000D01*
Y3276583D01*
X15781856D01*
X15748000D01*
Y3225800D01*
X15866495Y3293511D02*
X15900351D01*
X15917279Y3276583D01*
Y3225800D01*
X15866495D01*
X15849567Y3242728D01*
X15866495Y3259656D01*
X15917279D01*
X15951134Y3293511D02*
Y3225800D01*
Y3259656D01*
X15968062Y3276583D01*
X15984990Y3293511D01*
X16001918D01*
X16103485Y3225800D02*
X16069630D01*
X16052702Y3242728D01*
Y3276583D01*
X16069630Y3293511D01*
X16103485D01*
X16120413Y3276583D01*
Y3259656D01*
X16052702D01*
X16154269Y3225800D02*
X16205052D01*
X16221980Y3242728D01*
X16205052Y3259656D01*
X16171198D01*
X16154269Y3276583D01*
X16171198Y3293511D01*
X16221980D01*
X14630400Y3632175D02*
X14579617D01*
X14605008D01*
Y3505217D01*
X14579617Y3479825D01*
X14554225D01*
X14528833Y3505217D01*
X14681184Y3479825D02*
X14731967D01*
X14706577D01*
Y3632175D01*
X14681184Y3606783D01*
X17183109Y3657575D02*
X17132326D01*
X17157716D01*
Y3530617D01*
X17132326Y3505225D01*
X17106934D01*
X17081541Y3530617D01*
X17335458Y3505225D02*
X17233891D01*
X17335458Y3606792D01*
Y3632183D01*
X17310068Y3657575D01*
X17259283D01*
X17233891Y3632183D01*
X16294109Y3898883D02*
X16268716Y3924275D01*
X16217934D01*
X16192542Y3898883D01*
Y3797317D01*
X16217934Y3771925D01*
X16268716D01*
X16294109Y3797317D01*
X16446458Y3771925D02*
X16344891D01*
X16446458Y3873492D01*
Y3898883D01*
X16421066Y3924275D01*
X16370284D01*
X16344891Y3898883D01*
X15830933Y3924275D02*
Y3797317D01*
X15856325Y3771925D01*
X15907108D01*
X15932500Y3797317D01*
Y3924275D01*
X15983284Y3771925D02*
X16034067D01*
X16008676D01*
Y3924275D01*
X15983284Y3898883D01*
X15519400Y3911583D02*
X15494008Y3936975D01*
X15443225D01*
X15417833Y3911583D01*
Y3810017D01*
X15443225Y3784625D01*
X15494008D01*
X15519400Y3810017D01*
X15570184Y3784625D02*
X15620967D01*
X15595576D01*
Y3936975D01*
X15570184Y3911583D01*
D18*
X15381200Y3643900D02*
G03*
X15381200Y3643900I-12500J0D01*
G01*
X16470000Y3518900D02*
G03*
X16470000Y3518900I-12500J0D01*
G01*
X15700301Y3670300D02*
G03*
X15700301Y3670300I-12500J0D01*
G01*
D19*
X15078700Y3868900D02*
X15201199D01*
X14796201Y3421400D02*
Y3741400D01*
X15078700Y3293900D02*
X15201199D01*
Y3451400D01*
Y3711400D02*
Y3868900D01*
X16625000Y3293900D02*
X16747501D01*
X17030000Y3421400D02*
Y3741400D01*
X16625000Y3868900D02*
X16747501D01*
X16625000Y3711400D02*
Y3868900D01*
Y3293900D02*
Y3451400D01*
X16247000Y3570300D02*
Y3585300D01*
X16392000Y3570300D02*
Y3585300D01*
X15887801Y3425300D02*
Y3725300D01*
Y3425300D02*
X15957800D01*
Y3725300D01*
X15887801D02*
X15957800D01*
X15446899Y3573900D02*
Y3588900D01*
X15591901Y3573900D02*
Y3588900D01*
%TF.MD5,c49d3a3ff590821c7969aca1eee35f0c*%
M02*
